<svg width="217" height="107" fill="none" xmlns="http://www.w3.org/2000/svg"><path d="M50.34 6.714c-7.69-5.55-17.79-7.56-27.56-4.57L.5 8.954v13l49.84-15.24zm10.93 14.21c-1.6-4.18-4.01-7.84-7-10.86L.5 26.504v13l60.77-18.58zm1.53 17.08c.79-4.17.75-8.56-.26-12.92L.5 44.054v13l62.3-19.05zm-21.66 24.17c9.77-2.99 17.02-10.3 20.29-19.2L.5 61.594v13l40.64-12.42z" fill="#0072CE"/><path d="M78.82 11.394h7.97c6.63 0 10.65 4.12 10.65 10.55 0 6.42-4.02 10.55-10.65 10.55h-7.97v-21.1zm7.69 16.32c3.5 0 5.46-2.23 5.46-5.77 0-3.57-1.96-5.81-5.46-5.81h-2.27v11.58h2.27zm20.33 5.119c-4.67 0-7.9-3.3-7.9-8.07 0-4.78 3.23-8.07 7.9-8.07 4.71 0 7.9 3.3 7.9 8.07 0 4.77-3.19 8.07-7.9 8.07zm0-11.72c-1.65 0-2.58 1.51-2.58 3.64s.93 3.61 2.58 3.61c1.68 0 2.61-1.48 2.61-3.61s-.92-3.64-2.61-3.64zm28.42-4.429c3.23 0 5.22 2.2 5.22 5.67v10.13h-5.39v-8.83c0-1.3-.55-2.23-1.75-2.23-.93 0-1.72.58-1.99 1.65v9.41h-5.36v-8.83c0-1.3-.55-2.23-1.75-2.23-.93 0-1.75.58-1.99 1.65v9.41h-5.39v-15.46h5.39v1.27c.79-.96 2.27-1.61 3.99-1.61 1.96 0 3.33.76 4.26 1.86.91-.97 2.49-1.86 4.76-1.86zm13.54 15.799h-5.39v-15.46h5.39v15.46zm2.92-15.459h5.4v1.34c.86-.96 2.37-1.68 4.16-1.68 3.44 0 5.46 2.23 5.46 5.67v10.13h-5.36v-8.83c0-1.27-.65-2.2-2.03-2.2-1.07 0-1.96.62-2.23 1.68v9.35h-5.4v-15.46zm23.32 15.459h-5.39v-15.46h5.39v15.46zm9.99.35c-4.67 0-7.9-3.3-7.9-8.07 0-4.78 3.23-8.07 7.9-8.07 4.71 0 7.9 3.3 7.9 8.07.01 4.77-3.19 8.07-7.9 8.07zm0-11.72c-1.65 0-2.58 1.51-2.58 3.64s.93 3.61 2.58 3.61c1.68 0 2.61-1.48 2.61-3.61.01-2.13-.92-3.64-2.61-3.64zm10-4.089h5.4v1.34c.86-.96 2.37-1.68 4.15-1.68 3.44 0 5.46 2.23 5.46 5.67v10.13h-5.36v-8.83c0-1.27-.65-2.2-2.03-2.2-1.07 0-1.96.62-2.23 1.68v9.35h-5.4v-15.46h.01zm-20-5.63h-5.39v3.84h5.39v-3.84zm-26.24 0h-5.39v3.84h5.39v-3.84zM96.68 42.293h5.39v1.34c.86-.96 2.37-1.68 4.16-1.68 3.43 0 5.46 2.23 5.46 5.67v10.13h-5.36v-8.83c0-1.27-.65-2.2-2.03-2.2-1.07 0-1.96.62-2.23 1.68v9.35h-5.39v-15.46zm45.25 4.73c-.74-.32-1.3-.46-2.14-.46-1.29 0-2.64.72-2.84 2.11v9.07h-5.4v-15.45h5.4v1.38c.76-1.03 1.96-1.72 3.5-1.72.69 0 1.24.14 1.48.27v4.8zm22.02 16.66l2.42-6.35-5.77-15.08h5.6l2.95 8.8 2.89-8.8h5.36l-8.13 21.43h-5.32zm-5.06-21.43h-5.33v1.17c-.69-.82-1.96-1.51-3.64-1.51-4.36 0-6.84 3.33-6.84 7.59s2.47 7.63 6.84 7.63c1.52 0 2.7-.59 3.42-1.28 0 0 .1-.11.14-.14v1.17c-.08 2.05-1.83 3-3.84 3-2.13 0-3.81-.55-5.39-1.89v4.68c1.48 1.02 3.4 1.3 5.57 1.3 4.95 0 9.06-2.46 9.06-8.17l.01-13.55zm-7.7 10.82c-2.13 0-3.04-1.61-3.04-3.57 0-1.96.85-3.5 2.85-3.5 1.03 0 2.15.79 2.57 1.47v4.09c-.42.68-1.32 1.51-2.38 1.51zm-66.95-3.74h8.2v-4.64h-8.2v-3.3h9.66v-4.74H78.82v21.1H93.9v-4.78h-9.66v-3.64zm37.39-7.48c-4.61 0-7.86 3.6-7.86 8.15 0 5.63 3.36 8.17 8.52 8.17 2.3 0 4.15-.48 5.58-1.16v-3.82c-1.77.95-3.4 1.2-4.65 1.2-2.44 0-4.09-1.12-4.19-3.08h10.44c.03-.37.03-.6.03-.94-.01-4.57-2.48-8.52-7.87-8.52zm-2.64 6.52c.19-1.81 1.51-2.63 2.68-2.63 1.17 0 2.56.81 2.78 2.63h-5.46zm63.63-1.859c-1.51 0-2.73-1.22-2.73-2.73s1.22-2.73 2.73-2.73 2.73 1.22 2.73 2.73c0 1.5-1.22 2.73-2.73 2.73zm-.01-5.85c-1.72 0-3.12 1.4-3.12 3.12 0 1.72 1.39 3.12 3.12 3.12 1.72 0 3.12-1.4 3.12-3.12a3.105 3.105 0 00-3.12-3.12z" fill="#000"/><path d="M182.46 43.544h-.6v-.95h.9c.38 0 .82.06.82.45 0 .57-.69.5-1.12.5zm1.46-.49c0-.51-.27-.8-1.08-.8h-1.33v3.04h.34v-1.4h.71l.87 1.4h.45l-.92-1.4c.55-.02.96-.24.96-.84zM.6 88.603h4.67c1.7 0 2.85.1 3.8 1.12.69.71 1.02 1.66 1.02 2.7 0 1.06-.35 1.97-1.1 2.72-.73.73-1.7 1.2-4.2 1.2H2.53v6.191H.6v-13.93zm1.93 6.12h2.3c1.27 0 3.22-.1 3.22-2.37 0-2.18-1.81-2.18-2.82-2.18h-2.7v4.55zm12.73-2.129c3.88 0 4.74 3.05 4.74 5.07 0 2.84-1.6 5.19-4.9 5.19-3.2 0-4.76-2.22-4.76-5.05 0-2.39 1.12-5.21 4.92-5.21zm-.12 8.92c1.37 0 2.93-.98 2.93-3.9 0-2.41-1.12-3.68-2.82-3.68-1.16 0-3.03.73-3.03 3.76.01 1.98.86 3.82 2.92 3.82zm7.46-8.661l2.33 7.711 2.45-7.71h2.37l2.2 7.64 2.43-7.64h1.87l-3.41 9.68h-2.08l-2.28-7.97-2.53 7.97h-2.14l-3.2-9.68h1.99zm15.89 5.161c-.04 2.01.79 3.49 2.78 3.49 1.18 0 2.12-.62 2.28-2.01h1.81c-.06.48-.14 1.27-.83 2.03-.42.48-1.39 1.29-3.34 1.29-3.05 0-4.49-1.89-4.49-4.96 0-1.91.39-3.49 1.91-4.55.93-.66 2.08-.71 2.64-.71 4.34 0 4.24 3.84 4.21 5.42h-6.97zm5.11-1.27c.02-.93-.15-2.86-2.39-2.86-1.18 0-2.6.71-2.64 2.86h5.03zm3.47-1.93c0-.65-.04-1.33-.1-1.97h1.83l.04 1.87c.35-1.35 1.5-1.79 2.31-1.91.54-.08.94-.06 1.25-.04v1.77c-.1-.04-.21-.06-.35-.08-.14-.02-.31-.02-.52-.02-2.14 0-2.64 1.27-2.64 2.93v5.15h-1.83v-7.7h.01zm6.86-6.17h2.18v1.99h-2.18v-1.99zm.19 4.21h1.81v9.68h-1.81v-9.68zm3.51 1.11l-.02-1.12h1.81l.02 1.56c.21-.4.91-1.76 3.11-1.76.87 0 3.51.33 3.51 3.3v6.58h-1.85v-6.15c0-.64-.08-1.21-.52-1.66-.46-.44-1.1-.66-1.72-.66-1.31 0-2.53.94-2.53 2.89v5.57h-1.81v-8.55zm12.19 9.32c.08 1.08.54 1.89 2.26 1.89 2.53 0 2.57-1.83 2.57-4.45-.77 1.6-2.6 1.64-3.18 1.64-.89 0-2.16-.19-2.97-1.2-.83-.98-1.1-2.28-1.1-3.57 0-3.28 1.93-4.88 4.3-4.88 1.95 0 2.66.96 3.05 1.47l.02-1.33h1.76l-.04 1.76-.02 6.06c0 2.33-.08 3.28-.46 4.01-.81 1.54-2.7 1.74-4.03 1.74-3.88 0-3.99-1.81-4.07-3.13h1.91v-.01zm4.22-3.24c.39-.5.66-1.02.66-2.78 0-1.22-.27-1.91-.75-2.41-.48-.52-1.25-.85-2.08-.85-2.3 0-2.6 2.31-2.6 3.55 0 1.49.44 3.45 2.66 3.45 1.05 0 1.67-.38 2.11-.96zm11.29-2.991l-5.44-8.45h2.39l4.11 6.83 4.17-6.83h2.16l-5.44 8.54v5.381h-1.95v-5.47zm9.91-4.459c3.88 0 4.74 3.05 4.74 5.07 0 2.84-1.6 5.19-4.9 5.19-3.2 0-4.76-2.22-4.76-5.05 0-2.39 1.12-5.21 4.92-5.21zm-.12 8.92c1.37 0 2.93-.98 2.93-3.9 0-2.41-1.12-3.68-2.82-3.68-1.16 0-3.03.73-3.03 3.76.01 1.98.86 3.82 2.92 3.82zm8.26-8.661v6.23c0 .941.21 2.141 2.06 2.141.91 0 1.76-.31 2.28-1.08.4-.58.4-1.33.4-1.81v-5.48h1.87v7.87c0 .19.04 1.27.06 1.81h-1.89l-.04-1.66c-.35.67-1 1.76-3.09 1.76-2.39 0-3.51-1.37-3.51-3.28v-6.5h1.86zm8.78 1.961c0-.65-.04-1.33-.1-1.97h1.83l.04 1.87c.35-1.35 1.5-1.79 2.31-1.91.54-.08.95-.06 1.25-.04v1.77c-.1-.04-.21-.06-.35-.08-.13-.02-.31-.02-.52-.02-2.14 0-2.64 1.27-2.64 2.93v5.15h-1.83v-7.7h.01zM123 88.603h8.74v1.64h-6.81v4.34h6.48v1.62h-6.48v4.631h6.96v1.7H123v-13.93zm9.78 4.25h2.03l3.09 7.681 3.01-7.68h2.01l-4.24 9.68h-1.83l-4.07-9.68zm12.51 5.161c-.04 2.01.79 3.49 2.78 3.49 1.18 0 2.12-.62 2.28-2.01h1.81c-.06.48-.13 1.27-.83 2.03-.42.48-1.39 1.29-3.34 1.29-3.05 0-4.49-1.89-4.49-4.96 0-1.91.38-3.49 1.91-4.55.92-.66 2.08-.71 2.64-.71 4.34 0 4.24 3.84 4.2 5.42h-6.96zm5.11-1.27c.02-.93-.15-2.86-2.39-2.86-1.18 0-2.6.71-2.64 2.86h5.03zm3.84-1.93c0-.65-.04-1.33-.1-1.97h1.83l.04 1.87c.35-1.35 1.5-1.79 2.31-1.91.54-.08.95-.06 1.25-.04v1.77c-.1-.04-.21-.06-.35-.08-.13-.02-.31-.02-.52-.02-2.14 0-2.64 1.27-2.64 2.93v5.15h-1.83v-7.7h.01zm12.72 7.77l-1.39 3.61h-1.87l1.47-3.7-4.03-9.64h2.04l3.03 7.64 3.09-7.64h1.97l-4.31 9.73zm9.79-13.981h4.03c1.87 0 4.07 0 5.61 1.81 1.23 1.45 1.72 3.36 1.72 5.27 0 3.01-1.25 4.861-2.31 5.711-1.37 1.14-3.09 1.14-5.13 1.14h-3.91v-13.93h-.01zm1.93 12.351h1.89c1.33 0 2.72-.08 3.65-.77 1.77-1.33 1.83-3.61 1.83-4.42 0-.52-.04-2.89-1.35-4.34-.89-.98-2.01-1.21-3.7-1.21h-2.31v10.74h-.01zm17.12 1.58c-.14-.48-.17-.94-.17-1.45-.87 1.6-2.18 1.76-2.99 1.76-2.22 0-3.42-1.25-3.42-2.86 0-.77.27-2.01 1.7-2.84 1.04-.58 2.59-.64 3.36-.64.46 0 .75.02 1.31.06 0-1.2 0-1.72-.35-2.14-.37-.48-1.16-.64-1.68-.64-1.83 0-1.93 1.25-1.95 1.64h-1.81c.06-.5.12-1.18.67-1.83.73-.81 2.1-1.04 3.13-1.04 1.41 0 2.91.44 3.43 1.43.31.58.33 1.04.33 1.48l-.08 4.63c0 .15.02 1.45.15 2.43h-1.63v.01zm-1.25-4.77c-.73 0-3.49 0-3.49 1.97 0 .62.38 1.68 2.01 1.68.92 0 1.62-.37 2.06-1.04.41-.66.43-1.2.46-2.55-.33-.04-.6-.06-1.04-.06zm9.66 4.82l-1.39 3.61h-1.87l1.47-3.7-4.03-9.64h2.04l3.03 7.64 3.09-7.64h1.97l-4.31 9.73zm3.46-2.62h2.23v2.41h-2.23v-2.41zm5.52-7.101h.42v-2.83l1 2.83h.42l1.04-2.85v2.85h.43v-3.17h-.72l-.92 2.62-.9-2.62h-.77v3.17zm-3.05-.919c0 .15 0 .41.18.64.25.32.74.36.98.36.81 0 1.25-.42 1.25-.99 0-.13-.02-.44-.32-.63-.18-.12-.27-.14-1.02-.33-.39-.09-.57-.19-.57-.47 0-.32.26-.51.7-.51.31 0 .65.09.67.48h.46c-.01-.13-.02-.35-.19-.54-.25-.28-.68-.31-.89-.31-.6 0-1.21.28-1.21.93 0 .21.07.45.33.62.16.11.38.16.86.28.44.11.73.18.73.54 0 .16-.08.57-.74.57-.73 0-.76-.41-.76-.63h-.46v-.01z" fill="#000"/></svg>