<?xml version="1.0" encoding="utf-8"?>
<svg version="1.1" id="Layer_1" xmlns="http://www.w3.org/2000/svg" xmlns:xlink="http://www.w3.org/1999/xlink" x="0px" y="0px"
	 viewBox="0 0 276.6 117.9" xml:space="preserve">
<g id="Layer_2_00000004539108766784946780000014003006910175547558_">
	<g id="LOGOS_GO_HERE">
		<path fill="#03173E" d="M66.6,95.8v-1.3c0.8,0,1.7-0.1,2.5-0.3c0.3-0.1,0.5-0.3,0.6-0.6c0.2-0.4,0.3-0.8,0.3-1.2v-9.2H58v8.9
			c-0.1,0.6,0.2,1.3,0.7,1.7c0.4,0.4,1.3,0.6,2.6,0.7v1.3H50.7v-1.3c1.6-0.1,2.6-0.3,3-0.6c0.3-0.4,0.5-0.9,0.5-1.4V73.9
			c0-1.4-1.1-2.3-3.4-2.5v-1.3h10.6v1.3c-0.9,0-1.8,0.2-2.6,0.6c-0.5,0.4-0.8,1-0.7,1.7v7.9h12v-7.8c0-1.4-1.1-2.3-3.4-2.5v-1.3
			h10.6v1.3c-0.9,0-1.8,0.2-2.6,0.6c-0.5,0.4-0.8,1-0.7,1.7v18.4c0,0.6,0.2,1.3,0.7,1.6c0.8,0.4,1.7,0.7,2.6,0.7v1.3L66.6,95.8
			L66.6,95.8z"/>
		<path fill="#03173E" d="M92.4,91.6c-1.7,3.1-4.1,4.7-7.3,4.7c-2.7,0-4.7-0.9-6.2-2.6c-1.5-1.8-2.2-4.1-2.2-6.9
			c-0.1-2.4,0.8-4.7,2.3-6.5c1.4-1.8,3.6-2.8,5.8-2.7c2.3,0,4.1,0.7,5.4,2c1.2,1.4,1.9,3.2,1.9,5.6v1.2H80.2c0,2.5,0.5,4.5,1.5,5.9
			c1,1.4,2.7,2.2,4.4,2.1c0.9,0,1.9-0.2,2.7-0.7c1-0.7,1.8-1.6,2.3-2.7L92.4,91.6L92.4,91.6z M88.4,84.8c0-4-1.2-6-3.7-6
			c-1.3,0-2.4,0.6-3.2,1.6c-0.9,1.3-1.4,2.8-1.4,4.4L88.4,84.8L88.4,84.8z"/>
		<path fill="#03173E" d="M110.5,95.5c-0.9,0.4-1.9,0.6-2.9,0.7c-1.9,0-3-0.9-3.3-2.6h-0.1c-1.4,1.7-3.5,2.7-5.7,2.7
			c-1.2,0-2.4-0.4-3.3-1.2c-0.9-0.8-1.3-2-1.3-3.2c-0.1-1.3,0.4-2.5,1.2-3.4c0.8-0.8,2.2-1.5,4.2-2.2c1.7-0.5,3.3-1.1,4.9-1.8v-1.8
			c0-1-0.3-1.9-0.9-2.7c-0.6-0.8-1.6-1.2-2.5-1.1c-0.9-0.1-1.8,0.2-2.5,0.9c0,0.4,0.1,0.7,0.2,1.1c0.1,0.4,0.2,0.9,0.2,1.3
			c0,0.5-0.2,0.9-0.6,1.2c-0.4,0.3-1,0.5-1.5,0.5c-1.2,0-1.7-0.7-1.7-2.1c0-1.1,0.7-2,2-2.9c1.3-0.8,2.8-1.3,4.3-1.3
			c2.5,0,4.2,0.5,5.1,1.5c1,1,1.4,2.4,1.4,4.4l-0.1,8.9c0,0.5,0.1,1,0.5,1.4c0.2,0.3,0.5,0.4,0.8,0.5c0.6,0.1,1.2,0.1,1.7,0.1
			L110.5,95.5L110.5,95.5z M104.2,85.9c-2.6,0.8-4.4,1.6-5.4,2.4c-0.9,0.7-1.4,1.9-1.4,3.1c0,1.9,0.9,2.9,2.8,2.9
			c1.4,0,2.7-0.7,3.9-2.1L104.2,85.9L104.2,85.9z"/>
		<path fill="#03173E" d="M111.6,95.8v-1.2l0.9-0.1c1.2-0.1,1.8-0.7,1.8-1.7V74.1c0-0.6-0.2-1.2-0.6-1.7c-0.4-0.6-1.4-0.9-3-1v-1.2
			l6.7-0.4l0.3,0.3v22.5c0,1.2,0.9,1.9,2.7,2.1v1.2L111.6,95.8L111.6,95.8z"/>
		<path fill="#03173E" d="M132.2,95c-1.5,0.7-3.1,1.1-4.8,1.1c-2.7,0-4.1-1.4-4.1-4.3V79.8h-3.2v-1.7h3.3v-5.5h3.3v5.5h5.1v1.7h-5.1
			v9.9c0,1.6,0.2,2.8,0.6,3.4s1.1,0.9,2.3,0.9c0.9,0,1.7-0.1,2.6-0.3L132.2,95L132.2,95z"/>
		<path fill="#03173E" d="M144.8,95.8v-1.2l0.9-0.1c1.2-0.1,1.8-0.7,1.8-1.7v-9.2c0-1-0.3-2-0.9-2.9c-0.5-0.7-1.3-1.1-2.2-1.1
			c-1.9-0.1-3.7,1-4.6,2.7v10.2c0,1.2,0.9,1.9,2.7,2v1.2h-8.7v-1.2l0.9-0.1c1.2-0.1,1.7-0.7,1.7-1.7V74c0-0.5-0.1-0.9-0.3-1.4
			c-0.2-0.4-0.5-0.7-0.9-0.9c-0.7-0.2-1.5-0.3-2.2-0.3v-1.2l6.6-0.4l0.3,0.3v10.4h0.1c0.9-1,2-1.9,3.3-2.5c0.9-0.3,1.8-0.5,2.8-0.5
			c3.3,0,4.9,2,4.9,5.9v9.2c0,1.2,0.9,1.9,2.6,2v1.2L144.8,95.8L144.8,95.8z"/>
		<path fill="#03173E" d="M169.1,91.7c-0.7,1.3-1.8,2.5-3.1,3.3c-1.2,0.8-2.6,1.3-4.1,1.3c-2.6,0-4.6-0.9-6-2.6c-1.5-1.7-2.2-4-2.2-6.9
			c0-2.4,0.8-4.7,2.4-6.6c1.5-1.8,3.7-2.8,6.1-2.7c1.5-0.1,3.1,0.4,4.3,1.3c1,0.8,1.6,2.1,1.6,3.4c0,1.5-0.6,2.3-1.8,2.3
			c-0.6,0-1.2-0.2-1.7-0.5c-0.4-0.3-0.6-0.7-0.6-1.2c0-0.6,0.1-1.1,0.2-1.6c0.1-0.6,0.2-1,0.3-1.3c-0.3-0.6-1.1-0.9-2.4-0.9
			c-1.4,0-2.7,0.8-3.3,2c-0.9,1.3-1.3,3.3-1.3,5.8c-0.1,1.9,0.4,3.9,1.5,5.5c0.9,1.3,2.3,2.1,3.9,2.1c2.1,0,3.7-1.1,5.1-3.4
			L169.1,91.7L169.1,91.7z"/>
		<path fill="#03173E" d="M186.8,95.5c-0.9,0.4-1.9,0.6-2.9,0.7c-1.9,0-3-0.9-3.3-2.6h-0.1c-1.4,1.7-3.5,2.7-5.8,2.7
			c-1.2,0-2.4-0.4-3.3-1.2c-0.9-0.8-1.3-2-1.3-3.2c-0.1-1.3,0.4-2.5,1.2-3.4c0.8-0.8,2.2-1.5,4.2-2.2c1.7-0.5,3.3-1.1,4.9-1.8v-1.8
			c0-1-0.3-1.9-0.9-2.7c-0.6-0.8-1.6-1.2-2.5-1.1c-0.9-0.1-1.8,0.2-2.5,0.9c0,0.4,0.1,0.7,0.2,1.1c0.1,0.4,0.1,0.9,0.1,1.3
			c0,0.5-0.2,0.9-0.6,1.2c-0.4,0.3-1,0.5-1.5,0.5c-1.2,0-1.7-0.7-1.7-2.1c0-1.1,0.7-2,2-2.9c1.3-0.8,2.8-1.3,4.3-1.3
			c2.5,0,4.2,0.5,5.1,1.5c1,1,1.4,2.4,1.4,4.4l-0.1,8.9c0,0.5,0.1,1,0.5,1.4c0.2,0.3,0.5,0.4,0.8,0.5c0.6,0.1,1.2,0.1,1.7,0.1
			L186.8,95.5L186.8,95.5z M180.5,85.9c-2.6,0.8-4.4,1.6-5.4,2.4c-0.9,0.7-1.4,1.9-1.4,3.1c0,1.9,0.9,2.9,2.8,2.9
			c1.4,0,2.7-0.7,3.9-2.1L180.5,85.9L180.5,85.9z"/>
		<path fill="#03173E" d="M197.9,79.6c-1.6,0.1-2.9,0.9-3.9,2.6v10.3c0,0.6,0.2,1.1,0.6,1.4c0.4,0.3,1.3,0.5,2.8,0.6v1.2H188v-1.2
			l0.9-0.1c1.2-0.1,1.7-0.7,1.7-1.7v-11c0-1.6-0.9-2.4-2.8-2.4v-1.2l5.9-0.4l0.3,0.3v2.5h0.1c1.6-2,3.2-3,5-3c0.7,0,1.4,0.2,1.9,0.7
			c0.5,0.5,0.8,1.3,0.7,2c0,0.6-0.1,1.2-0.5,1.7c-0.3,0.4-0.8,0.7-1.3,0.6c-0.5,0-1.1-0.1-1.5-0.5c-0.4-0.3-0.6-0.7-0.6-1.2
			C197.8,80.5,197.8,80,197.9,79.6L197.9,79.6z"/>
		<path fill="#03173E" d="M217.6,91.6c-1.7,3.1-4.1,4.7-7.3,4.7c-2.7,0-4.7-0.9-6.3-2.6c-1.5-1.7-2.2-4.1-2.2-6.9
			c-0.1-2.4,0.8-4.7,2.3-6.5c1.4-1.8,3.6-2.8,5.8-2.7c2.3,0,4.1,0.7,5.4,2c1.2,1.4,1.9,3.2,1.9,5.6v1.2h-11.8c0,2.5,0.5,4.5,1.5,5.9
			c1,1.4,2.7,2.2,4.4,2.1c0.9,0,1.9-0.2,2.7-0.7c1-0.7,1.8-1.6,2.3-2.7L217.6,91.6L217.6,91.6z M213.6,84.8c0-4-1.2-6-3.7-6
			c-1.3,0-2.4,0.6-3.2,1.6c-0.9,1.3-1.4,2.8-1.4,4.4L213.6,84.8L213.6,84.8z"/>
		<path fill="#03173E" d="M59.7,39h18.1c0.2,0,0.4-0.2,0.4-0.4V23.2c0-0.4,0.3-0.8,0.8-0.8c0,0,0,0,0,0h6.6c0.4,0,0.8,0.3,0.8,0.8
			c0,0,0,0,0,0v39.6c0,0.4-0.3,0.8-0.8,0.8l0,0h-6.6c-0.4,0-0.8-0.3-0.8-0.8l0,0V47c0-0.2-0.2-0.4-0.4-0.4H59.7
			c-0.2,0-0.4,0.2-0.4,0.4c0,0,0,0,0,0v15.8c0,0.4-0.3,0.8-0.8,0.8h-6.6c-0.4,0-0.8-0.3-0.8-0.8V23.2c0-0.4,0.3-0.8,0.8-0.8
			c0,0,0,0,0,0h6.7c0.4,0,0.7,0.3,0.7,0.7l0,0v15.5C59.3,38.8,59.5,39,59.7,39L59.7,39L59.7,39z"/>
		<path fill="#03173E" d="M129.6,34l-5.5,3c-0.3,0.2-0.8,0.1-1-0.2c-0.7-1.1-1.5-2.2-2.4-3.3c-2.2-2.7-5.4-4-9.2-4
			c-7.3,0-12.7,5.5-12.7,13.5c0,8.3,5.6,13.5,12.7,13.5c3.3,0,6.5-1.3,8.9-3.7c1-1.1,1.8-2.3,2.6-3.5c0.2-0.3,0.7-0.4,1-0.2
			c0,0,0,0,0,0l5.8,2.8c0.3,0.3,0.4,0.7,0.2,1.1c-0.8,1.6-1.8,3-2.8,4.4c-3.9,4.5-9.6,7.1-15.6,7c-12.3,0-21-9-21-21.4
			s8.7-21.4,21-21.4c6.7,0,12.7,2.9,16.1,7.8c0.8,1.1,1.5,2.3,2.2,3.5C130,33.2,129.9,33.7,129.6,34L129.6,34z"/>
		<path fill="#03173E" d="M171.8,62.6l-15.5-39.8c-0.1-0.3-0.4-0.5-0.7-0.5h-9c-0.3,0-0.6,0.2-0.7,0.5l-15.5,39.8
			c-0.1,0.4,0,0.8,0.4,0.9c0.1,0,0.2,0,0.2,0h7c0.3,0,0.6-0.2,0.7-0.5l3.3-8.9c0.1-0.1,0.2-0.2,0.4-0.2h6.2c3.7-0.2,6.3-3.3,6.3-7.1
			c0-0.2-0.2-0.4-0.4-0.4h-8.9c-0.2,0-0.4-0.2-0.4-0.4c0,0,0-0.1,0-0.1l5.4-14.5c0.1-0.2,0.3-0.3,0.5-0.2c0.1,0,0.2,0.1,0.2,0.2
			l11.8,31.7c0.1,0.3,0.4,0.5,0.7,0.5h7.2c0.4,0,0.7-0.3,0.8-0.7C171.9,62.8,171.9,62.7,171.8,62.6L171.8,62.6z"/>
		<path fill="#E05929" d="M180.8,50.1h4.7c1.8,0,3.3,1.5,3.3,3.3v4.7c0,2.9,2.3,5.6,5.2,5.6c0.2,0,0.3-0.2,0.3-0.3l0,0V51.6
			c0-3.9-3.2-7.1-7.1-7.1h-11.7c-0.2,0-0.3,0.1-0.3,0.3C175.2,47.7,177.9,50.1,180.8,50.1L180.8,50.1z"/>
		<path fill="#E05929" d="M180.8,35.3h4.7c1.8,0,3.3-1.5,3.3-3.3l0,0v-4.7c0-2.9,2.3-5.6,5.2-5.6c0.2,0,0.3,0.1,0.3,0.3v11.7
			c0,3.9-3.2,7.1-7.1,7.1c0,0,0,0,0,0h-11.7c-0.2,0-0.3-0.1-0.3-0.3C175.2,37.6,177.9,35.3,180.8,35.3L180.8,35.3z"/>
		<path fill="#E05929" d="M211.5,50.1h-4.7c-1.8,0-3.3,1.5-3.3,3.3v4.7c0,2.9-2.3,5.6-5.2,5.6c-0.2,0-0.3-0.2-0.3-0.3l0,0V51.6
			c0-3.9,3.2-7.1,7.1-7.1h11.7c0.2,0,0.3,0.1,0.3,0.3C217.1,47.7,214.4,50.1,211.5,50.1L211.5,50.1z"/>
		<path fill="#E05929" d="M211.5,35.3h-4.7c-1.8,0-3.3-1.5-3.3-3.3l0,0v-4.7c0-2.9-2.3-5.6-5.2-5.6c-0.2,0-0.3,0.1-0.3,0.3v11.7
			c0,3.9,3.2,7.1,7.1,7.1h11.7c0.2,0,0.3-0.1,0.3-0.3l0,0C217.1,37.6,214.4,35.3,211.5,35.3L211.5,35.3z"/>
		<path fill="#E05929" d="M197,39.3c0.7,1,1.6,1.9,2.6,2.6c0.8,0.5,0.8,1.1,0,1.6c-1,0.7-1.9,1.6-2.6,2.6c-0.5,0.8-1.1,0.8-1.6,0
			c-0.7-1-1.6-1.9-2.6-2.6c-0.8-0.5-0.8-1.1,0-1.6c1-0.7,1.9-1.6,2.6-2.6C195.8,38.5,196.4,38.5,197,39.3L197,39.3z"/>
		<path fill="#03173E" d="M225.9,74.7c0.1,2.2-1.7,4.1-3.9,4.1c-2.2,0.1-4.1-1.7-4.1-3.9c-0.1-2.2,1.7-4.1,3.9-4.1c0,0,0.1,0,0.1,0
			C224.1,70.8,225.9,72.5,225.9,74.7C225.9,74.7,225.9,74.7,225.9,74.7L225.9,74.7z M218.9,74.7c0,1.7,1.3,3.1,2.9,3.1
			c0,0,0.1,0,0.1,0c1.6,0,3-1.3,3-3c0,0,0-0.1,0-0.1c0-1.7-1.3-3-3-3S218.9,73.1,218.9,74.7L218.9,74.7L218.9,74.7L218.9,74.7z
			 M221.3,76.8h-0.9v-3.9c0.5-0.1,1-0.1,1.5-0.1c0.5,0,0.9,0.1,1.4,0.3c0.3,0.2,0.4,0.5,0.4,0.9c0,0.5-0.4,0.8-0.8,0.9l0,0
			c0.4,0.2,0.7,0.5,0.7,0.9c0,0.3,0.1,0.7,0.3,1h-1c-0.2-0.3-0.3-0.6-0.3-1c-0.1-0.4-0.3-0.6-0.8-0.6h-0.4L221.3,76.8L221.3,76.8z
			 M221.3,74.6h0.4c0.5,0,0.9-0.2,0.9-0.6c0-0.4-0.3-0.6-0.8-0.6c-0.2,0-0.3,0-0.5,0C221.3,73.4,221.3,74.6,221.3,74.6z"/>
	</g>
</g>
</svg>