<svg viewBox="0 0 610.14 108.47" xmlns="http://www.w3.org/2000/svg"><path d="M92.97 0C81.253 0 71.755 9.498 71.755 21.215c0 11.716 9.498 21.215 21.215 21.215s21.215-9.499 21.215-21.215C114.185 9.498 104.687 0 92.97 0m27.653 91.723c-12.816 12.816-30.753 17.388-47.225 13.718-3.669-16.47.903-34.407 13.719-47.224C99.934 45.402 117.87 40.83 134.34 44.5c3.67 16.471-.903 34.408-13.718 47.224" fill="#18b7d1"/><path d="M513.19 66.56c0-11.29 6.65-20.569 17.94-20.569 11.29 0 18.867 8.505 18.867 21.342 0 12.681-8.041 20.26-18.558 20.26-11.29 0-18.249-9.28-18.249-21.033m36.188-39.9v10.67c-4.947-7.424-13.917-12.372-24.434-12.372-23.507 0-38.51 18.404-38.51 41.602 0 23.662 15.62 41.911 38.665 41.911 11.29 0 19.177-4.795 24.28-12.681v10.98h26.601V26.66zm-60.469 0h-28.92l-18.25 50.881-18.093-50.881h-28.921l34.643 80.11h25.209zM334.38 66.715c0-11.6 8.043-19.95 19.487-19.95s19.487 8.35 19.487 19.95c0 11.598-8.043 19.795-19.487 19.795s-19.486-8.197-19.486-19.795m64.645 0c0-23.044-20.104-41.757-45.159-41.757-24.898 0-45.159 18.559-45.159 41.757s20.26 41.756 45.159 41.756c25.055 0 45.159-18.713 45.159-41.756M220.563 106.77h26.599V63.467c0-9.125 3.248-17.166 12.837-17.166 9.742 0 12.682 9.433 12.682 17.166v43.303h26.601V61.92c0-17.475-4.95-36.962-28.302-36.962-10.208 0-18.095 3.71-23.818 12.217V26.66h-26.6zM205.71-.002h-27.374V106.77h27.374zm-163.116 0c-11.717 0-21.215 9.498-21.215 21.215s9.498 21.214 21.215 21.214S63.81 32.93 63.81 21.213 54.312-.002 42.595-.002M1.225 44.497c16.47-3.67 34.406.902 47.223 13.718 12.816 12.817 17.388 30.754 13.719 47.224-16.472 3.67-34.409-.901-47.225-13.718C2.125 78.905-2.445 60.968 1.224 44.497m592.625-2.911V26.66h3.728l4.417 10.894 4.411-10.894h3.735v14.926h-3.37v-8.167l-.724 2.24-2.494 5.927h-3.115l-2.494-5.928-.724-2.239v8.167zM579.875 29.69v-3.03h12.281v3.03h-4.41v11.896h-3.454V29.69z" fill="#032c66"/></svg>
