<?xml version="1.0" encoding="UTF-8"?>
<svg width="162px" height="60px" viewBox="0 0 162 60" version="1.1" xmlns="http://www.w3.org/2000/svg" xmlns:xlink="http://www.w3.org/1999/xlink">
    <title>BOC Logo DTP Header</title>
    <g id="Homepage" stroke="none" stroke-width="1" fill="none" fill-rule="evenodd">
        <g id="MBL-Home_Clarke-Bank_v1.2C_dm-Copy-2" transform="translate(-20.000000, -9.000000)">
            <g id="BOC-Logo-DTP-Header" transform="translate(20.000000, 9.000000)">
                <path d="M79.2017104,55.98751 C68.8071693,55.98751 59.7718271,50.3167742 55.6208219,41.188547 L55.4074065,40.7190482 L50.7887036,40.7190482 L51.2397518,41.8155455 C53.4624505,47.2215319 57.2040312,51.7762706 62.0588532,54.9870125 C67.0173558,58.2660043 72.9453091,60 79.2017104,60 C85.5375747,60 91.5745062,58.1925045 96.6601498,54.7725131 L97.012815,54.5355137 L97.012815,49.2675268 L95.7020509,50.3257742 C91.1802175,53.9767651 85.3211322,55.98751 79.2017104,55.98751 M96.7822204,5.22748693 C91.6973336,1.80749548 85.6604021,0 79.3237809,0 C72.4634595,0 66.0761333,2.05499486 60.8519967,5.94298514 C55.7126208,9.76797558 52.0520169,15.0869623 50.266744,21.3231967 L49.9761358,22.3371942 L54.4366691,22.3371942 L54.6130017,21.7784456 C58.0193234,10.9859725 67.7191292,4.01248997 79.3237809,4.01248997 C85.442446,4.01248997 91.302288,6.02323494 95.8233647,9.67422581 L97.1348856,10.7324732 L97.1348856,5.46448634 L96.7822204,5.22748693 Z" id="Combined-Shape" fill="#00967F"></path>
                <path d="M6.45770793,30.8508729 L3.7892586,30.8508729 L3.7892586,34.5941135 L6.45770793,34.5941135 C7.65873717,34.5941135 8.56613103,34.018115 8.56613103,32.7356182 C8.56613103,31.4531214 7.65873717,30.8508729 6.45770793,30.8508729 L6.45770793,30.8508729 Z M6.27078025,23.9673901 L3.7892586,23.9673901 L3.7892586,27.2651318 L6.27078025,27.2651318 C7.28488181,27.2651318 8.05908025,26.7416331 8.05908025,25.615886 C8.05908025,24.4901388 7.28488181,23.9673901 6.27078025,23.9673901 L6.27078025,23.9673901 Z M0,20.381649 L6.29726798,20.381649 C9.60672031,20.381649 11.9550465,22.2918943 11.9550465,25.1186372 C11.9550465,27.0558824 11.1006281,28.3383792 9.7928912,29.0186275 C11.3950203,29.7776256 12.4620973,31.1651221 12.4620973,33.2591169 C12.4620973,36.1908595 9.95333115,38.1798546 6.45770793,38.1798546 L0,38.1798546 L0,20.381649 Z M19.5063192,35.8502104 C20.5469085,35.8502104 21.3475947,35.1437121 21.3475947,34.2272144 C21.3475947,33.3114667 20.5469085,32.6049685 19.5063192,32.6049685 C18.4657299,32.6049685 17.638556,33.3114667 17.638556,34.2272144 C17.638556,35.1437121 18.4657299,35.8502104 19.5063192,35.8502104 L19.5063192,35.8502104 Z M15.5301329,25.6419859 C16.4905023,25.2497369 17.9851669,24.8829878 19.3731238,24.8829878 C22.948967,24.8829878 25.0301456,26.5584836 25.0301456,30.3534741 L25.0301456,38.1797046 L21.4013269,38.1797046 L21.4013269,37.211457 C20.7338362,37.9704551 19.7197346,38.4677038 18.4384854,38.4677038 C15.4764007,38.4677038 14.0627128,36.4262089 14.0627128,34.2272144 C14.0627128,31.8977203 15.7965238,30.0392249 18.4922177,30.0392249 C19.6130269,30.0392249 20.7338362,30.4322239 21.4013269,30.9819725 L21.4013269,30.2754743 C21.4013269,28.7049782 20.3334931,28.0502299 18.946293,28.0502299 C17.7717515,28.0502299 16.5177468,28.4432289 15.5301329,29.0192275 L15.5301329,25.6419859 Z M31.5676194,26.793983 C32.2880856,25.6682358 33.4088948,24.8829878 35.0632426,24.8829878 C37.9186196,24.8829878 39.7598951,26.9769826 39.7598951,29.7782256 L39.7598951,38.1797046 L36.1038319,38.1797046 L36.1038319,30.7727231 C36.1038319,29.3327267 35.2236826,28.3644791 33.8357256,28.3644791 C32.501501,28.3644791 31.6478394,29.2284769 31.5676194,30.6152235 L31.5676194,38.1797046 L27.9380439,38.1797046 L27.9380439,25.1447371 L31.5676194,25.1447371 L31.5676194,26.793983 Z M42.6679448,20.1194497 L46.2975202,20.1194497 L46.2975202,30.0659248 L49.9263389,25.1451871 L54.1961605,25.1451871 L50.1934865,30.405674 L54.1961605,38.1801545 L49.9800711,38.1801545 L47.471305,32.9451676 L46.2975202,34.5156637 L46.2975202,38.1801545 L42.6679448,38.1801545 L42.6679448,20.1194497 Z M67.7514442,34.9865125 C69.6192074,34.9865125 70.9541888,33.4685163 70.9541888,31.6625208 C70.9541888,29.8565254 69.6192074,28.3640291 67.7514442,28.3640291 C65.9101688,28.3640291 64.5222119,29.8565254 64.5222119,31.6625208 C64.5222119,33.4685163 65.9101688,34.9865125 67.7514442,34.9865125 M67.7514442,24.8832878 C71.6474105,24.8832878 74.6632275,27.8405304 74.6632275,31.6625208 C74.6632275,35.4837613 71.6474105,38.4680038 67.7514442,38.4680038 C63.8554779,38.4680038 60.839661,35.4837613 60.839661,31.6625208 C60.839661,27.8405304 63.8554779,24.8832878 67.7514442,24.8832878 M84.1356928,28.7047532 L81.5467067,28.7047532 L81.5467067,38.1794796 L77.917888,38.1794796 L77.917888,28.7047532 L76.0501249,28.7047532 L76.0501249,25.6680108 L77.917888,25.6680108 L77.917888,24.4905138 C77.917888,21.4282714 79.8658712,19.8577754 82.8279559,19.8577754 C83.2547867,19.8577754 83.9222774,19.9357752 84.1886683,20.014525 L84.1886683,23.5747661 C83.9222774,23.4435164 83.3614944,23.3385167 82.9619081,23.3385167 C82.0545143,23.3385167 81.5467067,23.9145152 81.5467067,24.7260132 L81.5467067,25.6680108 L84.1356928,25.6680108 L84.1356928,28.7047532 Z" id="Combined-Shape" fill="#202121"></path>
                <path d="M104.602608,37.5515061 C103.375091,38.1275047 101.960647,38.4680038 100.465982,38.4680038 C95.1555713,38.4680038 91.1264095,34.4892638 91.1264095,29.2805268 C91.1264095,24.0717898 95.1555713,20.0930498 100.465982,20.0930498 C101.960647,20.0930498 103.375091,20.4335489 104.602608,21.0095475 L104.602608,25.2755368 C103.588507,24.412289 102.147574,23.8100405 100.465982,23.8100405 C97.3707021,23.8100405 95.0223758,26.2707843 95.0223758,29.2805268 C95.0223758,32.3165192 97.3442143,34.7510131 100.465982,34.7510131 C102.147574,34.7510131 103.641482,34.1487646 104.602608,33.3117667 L104.602608,37.5515061 Z M107.29694,38.1796296 L110.953003,38.1796296 L110.953003,20.1189247 L107.29694,20.1189247 L107.29694,38.1796296 Z M118.530991,35.8502104 C119.57158,35.8502104 120.372266,35.1437121 120.372266,34.2272144 C120.372266,33.3114667 119.57158,32.6049685 118.530991,32.6049685 C117.490401,32.6049685 116.662471,33.3114667 116.662471,34.2272144 C116.662471,35.1437121 117.490401,35.8502104 118.530991,35.8502104 L118.530991,35.8502104 Z M114.554804,25.6419859 C115.515174,25.2497369 117.009838,24.8829878 118.397795,24.8829878 C121.973638,24.8829878 124.054817,26.5584836 124.054817,30.3534741 L124.054817,38.1797046 L120.425998,38.1797046 L120.425998,37.211457 C119.758508,37.9704551 118.744406,38.4677038 117.463157,38.4677038 C114.501829,38.4677038 113.087384,36.4262089 113.087384,34.2272144 C113.087384,31.8977203 114.821952,30.0392249 117.516889,30.0392249 C118.637698,30.0392249 119.758508,30.4322239 120.425998,30.9819725 L120.425998,30.2754743 C120.425998,28.7049782 119.358165,28.0502299 117.970964,28.0502299 C116.796423,28.0502299 115.542418,28.4432289 114.554804,29.0192275 L114.554804,25.6419859 Z M130.592442,26.5584086 C131.232688,25.590161 132.24679,24.8836628 133.741455,24.8836628 C134.034333,24.8836628 134.488408,24.9091627 134.782044,24.9616626 L134.782044,28.7566531 C134.274993,28.5219037 133.634747,28.3644041 132.834061,28.3644041 C131.553568,28.3644041 130.672662,29.2276519 130.592442,30.6158985 L130.592442,38.1796296 L126.963624,38.1796296 L126.963624,25.1446621 L130.592442,25.1446621 L130.592442,26.5584086 Z M136.676143,20.1194497 L140.304962,20.1194497 L140.304962,30.0659248 L143.934537,25.1451871 L148.204359,25.1451871 L144.201685,30.405674 L148.204359,38.1801545 L143.98827,38.1801545 L141.479504,32.9451676 L140.304962,34.5156637 L140.304962,38.1801545 L136.676143,38.1801545 L136.676143,20.1194497 Z M152.767135,30.0918748 L158.504377,30.0918748 C158.451401,28.7568781 157.303348,27.8411304 155.755707,27.8411304 C154.154335,27.8411304 152.954063,28.8618778 152.767135,30.0918748 L152.767135,30.0918748 Z M152.767135,32.788118 C153.087258,34.2798643 154.421483,35.2481119 156.289246,35.2481119 C157.943594,35.2481119 159.598698,34.7771131 160.799728,34.018115 L160.799728,37.4471064 C159.625186,38.0486049 157.917106,38.4678538 155.996367,38.4678538 C152.046669,38.4678538 149.138316,35.7191107 149.138316,31.6623708 C149.138316,27.8411304 151.939204,24.8831378 155.782195,24.8831378 C159.625186,24.8831378 162,27.7098807 162,31.0863723 C162,31.6361209 161.893292,32.3688691 161.786585,32.788118 L152.767135,32.788118 Z" id="Combined-Shape" fill="#00967F"></path>
            </g>
        </g>
    </g>
</svg>